<?xml version="1.0" standalone="no"?>
<!DOCTYPE svg PUBLIC "-//W3C//DTD SVG 20010904//EN"
 "http://www.w3.org/TR/2001/REC-SVG-20010904/DTD/svg10.dtd">
<svg version="1.0" xmlns="http://www.w3.org/2000/svg"
 width="1000.000000pt" height="1000.000000pt" viewBox="0 0 1000.000000 1000.000000"
 preserveAspectRatio="xMidYMid meet">
<metadata>
Created by potrace 1.14, written by Peter Selinger 2001-2017
</metadata>
<g transform="translate(0.000000,1000.000000) scale(0.100000,-0.100000)"
fill="#000000" stroke="none">
<path d="M3346 9989 c-109 -26 -220 -118 -273 -227 -27 -56 -27 -60 -34 -322
-11 -406 -32 -642 -94 -1055 -88 -580 -282 -1305 -550 -2050 -123 -341 -188
-510 -501 -1287 -280 -696 -361 -887 -544 -1283 -282 -613 -391 -926 -447
-1292 -24 -157 -24 -511 0 -658 48 -286 139 -544 282 -792 171 -296 420 -556
695 -726 99 -61 304 -158 411 -195 351 -122 768 -133 1084 -27 112 37 286 122
389 190 229 151 424 335 705 665 209 246 249 279 386 319 69 21 93 23 194 18
230 -10 388 -76 771 -322 214 -137 365 -225 485 -281 123 -57 311 -120 420
-140 125 -22 358 -29 485 -14 360 41 772 222 1085 475 169 137 337 332 447
520 263 450 394 981 373 1520 -20 558 -139 945 -560 1830 -81 171 -161 339
-178 375 -103 225 -187 418 -322 740 -84 201 -191 455 -238 565 -324 766 -519
1442 -598 2075 -29 227 -36 648 -15 846 19 176 12 236 -37 327 -36 69 -97 126
-176 164 -50 25 -67 28 -156 28 -91 0 -106 -3 -165 -31 -80 -38 -142 -99 -183
-179 -44 -87 -47 -171 -12 -345 176 -878 521 -1783 1188 -3116 150 -300 489
-1065 637 -1440 245 -619 359 -1177 329 -1619 -26 -392 -121 -754 -285 -1084
-259 -522 -673 -908 -1153 -1075 -158 -55 -277 -76 -433 -76 -280 0 -473 50
-1051 269 -297 113 -468 151 -681 151 -169 0 -299 -38 -433 -127 -31 -20 -116
-94 -188 -163 -346 -331 -667 -526 -1024 -623 -111 -30 -124 -31 -316 -31
-179 -1 -209 1 -290 23 -384 100 -707 361 -998 804 -181 275 -282 525 -338
842 -27 153 -37 470 -20 653 34 361 140 767 341 1307 134 360 228 577 587
1360 642 1397 863 1935 1149 2790 173 520 349 1149 361 1295 23 275 -237 493
-511 429z"/>
<path d="M6510 5046 c-235 -72 -1013 -417 -1208 -535 l-97 -59 -15 31 c-19 39
-40 52 -72 44 -34 -9 -38 -21 -45 -147 -7 -119 0 -141 48 -166 29 -15 37 -14
113 6 141 39 239 77 519 206 416 192 705 313 844 354 22 7 57 10 76 6 19 -4
98 -44 176 -91 77 -46 163 -96 190 -110 131 -72 134 27 5 221 -29 45 -81 106
-114 137 -128 119 -262 152 -420 103z"/>
<path d="M4677 4483 c-8 -10 -19 -30 -22 -46 -4 -15 -10 -29 -14 -31 -3 -2
-37 2 -76 10 -184 36 -364 45 -865 47 -522 2 -579 -2 -662 -44 -54 -28 -109
-80 -166 -157 -71 -98 -114 -181 -107 -209 7 -29 50 -41 79 -22 12 7 77 46
145 86 102 60 133 73 167 73 l43 0 -56 -52 c-120 -114 -231 -300 -275 -463
-31 -116 -31 -365 0 -479 81 -295 263 -513 533 -640 162 -77 333 -106 507 -86
127 14 197 33 309 85 116 54 170 91 262 179 132 128 222 278 268 453 36 135
38 344 5 477 -42 166 -130 324 -254 450 -37 39 -66 70 -65 71 1 1 70 9 152 18
138 15 152 19 173 42 18 21 22 38 22 88 -1 80 -14 147 -31 158 -23 14 -55 10
-72 -8z m-408 -690 c100 -74 155 -276 117 -437 -61 -259 -261 -323 -365 -116
-40 82 -55 157 -48 260 8 138 66 258 147 302 43 23 110 19 149 -9z"/>
<path d="M6147 4379 c-107 -11 -186 -34 -296 -85 -336 -157 -543 -465 -558
-834 -12 -273 79 -518 266 -713 186 -195 425 -297 698 -297 223 0 407 60 583
191 366 272 491 773 296 1185 -53 112 -89 165 -169 251 -212 226 -511 336
-820 302z m-190 -547 c65 -35 125 -145 145 -267 26 -159 -41 -348 -143 -400
-92 -48 -204 30 -256 179 -14 38 -18 81 -18 171 0 103 4 129 24 179 53 133
153 188 248 138z"/>
<path d="M4897 2735 c-147 -8 -260 -18 -278 -25 -33 -14 -59 -55 -59 -95 0
-41 58 -144 109 -194 142 -138 346 -169 525 -79 139 70 254 256 216 347 -28
68 -46 69 -513 46z"/>
</g>
</svg>
